name Run_400 01_newCOP3_v24.mot
datacolumns 19
datarows 15
range 1.45416700 1.46875000
endheader
                time	   R_ground_force_vx	   R_ground_force_vy	   R_ground_force_vz	   R_ground_force_px	   R_ground_force_py	   R_ground_force_pz	   L_ground_force_vx	   L_ground_force_vy	   L_ground_force_vz	   L_ground_force_px	   L_ground_force_py	   L_ground_force_pz	   R_ground_torque_x	   R_ground_torque_y	   R_ground_torque_z	   L_ground_torque_x	   L_ground_torque_y	   L_ground_torque_z	
          1.45416700	       -224.85543800	       1435.57446300	         15.47371500	          0.80952600	          0.00000000	         -0.34937600	          0.00000000	          0.00000000	          0.00000000	          0.00000000	          0.00000000	          0.00000000	          0.00000000	         -6.31783200	          0.00000000	          0.00000000	          0.00000000	          0.00000000	
          1.45520800	       -225.95660400	       1449.96569800	         14.28586500	          0.80681900	          0.00000000	         -0.34938900	          0.00000000	          0.00000000	          0.00000000	          0.00000000	          0.00000000	          0.00000000	          0.00000000	         -6.27617900	          0.00000000	          0.00000000	          0.00000000	          0.00000000	
          1.45625000	       -226.61967500	       1464.38501000	         13.13292600	          0.80403800	          0.00000000	         -0.34937600	          0.00000000	          0.00000000	          0.00000000	          0.00000000	          0.00000000	          0.00000000	          0.00000000	         -6.22002000	          0.00000000	          0.00000000	          0.00000000	          0.00000000	
          1.45729200	       -226.83883700	       1478.79980500	         12.02806600	          0.80118600	          0.00000000	         -0.34933400	          0.00000000	          0.00000000	          0.00000000	          0.00000000	          0.00000000	          0.00000000	          0.00000000	         -6.14961100	          0.00000000	          0.00000000	          0.00000000	          0.00000000	
          1.45833300	       -226.61154200	       1493.17285200	         10.98196400	          0.79826500	          0.00000000	         -0.34926600	          0.00000000	          0.00000000	          0.00000000	          0.00000000	          0.00000000	          0.00000000	          0.00000000	         -6.06523800	          0.00000000	          0.00000000	          0.00000000	          0.00000000	
          1.45937500	       -225.93804900	       1507.46301300	         10.00266400	          0.79528000	          0.00000000	         -0.34917200	          0.00000000	          0.00000000	          0.00000000	          0.00000000	          0.00000000	          0.00000000	          0.00000000	         -5.96721500	          0.00000000	          0.00000000	          0.00000000	          0.00000000	
          1.46041700	       -224.82116700	       1521.62695300	          9.09549900	          0.79223400	          0.00000000	         -0.34905300	          0.00000000	          0.00000000	          0.00000000	          0.00000000	          0.00000000	          0.00000000	          0.00000000	         -5.85587900	          0.00000000	          0.00000000	          0.00000000	          0.00000000	
          1.46145800	       -223.26599100	       1535.61914100	          8.26309700	          0.78913200	          0.00000000	         -0.34891200	          0.00000000	          0.00000000	          0.00000000	          0.00000000	          0.00000000	          0.00000000	          0.00000000	         -5.73159100	          0.00000000	          0.00000000	          0.00000000	          0.00000000	
          1.46250000	       -221.27978500	       1549.39367700	          7.50544800	          0.78597900	          0.00000000	         -0.34875000	          0.00000000	          0.00000000	          0.00000000	          0.00000000	          0.00000000	          0.00000000	          0.00000000	         -5.59472800	          0.00000000	          0.00000000	          0.00000000	          0.00000000	
          1.46354200	       -218.87179600	       1562.90441900	          6.82004400	          0.78277900	          0.00000000	         -0.34857100	          0.00000000	          0.00000000	          0.00000000	          0.00000000	          0.00000000	          0.00000000	          0.00000000	         -5.44568800	          0.00000000	          0.00000000	          0.00000000	          0.00000000	
          1.46458300	       -216.05326800	       1576.10571300	          6.20207900	          0.77953900	          0.00000000	         -0.34837600	          0.00000000	          0.00000000	          0.00000000	          0.00000000	          0.00000000	          0.00000000	          0.00000000	         -5.28488000	          0.00000000	          0.00000000	          0.00000000	          0.00000000	
          1.46562500	       -212.83734100	       1588.95373500	          5.64469700	          0.77626300	          0.00000000	         -0.34817000	          0.00000000	          0.00000000	          0.00000000	          0.00000000	          0.00000000	          0.00000000	          0.00000000	         -5.11273200	          0.00000000	          0.00000000	          0.00000000	          0.00000000	
          1.46666700	       -209.23898300	       1601.40612800	          5.13929100	          0.77295500	          0.00000000	         -0.34795500	          0.00000000	          0.00000000	          0.00000000	          0.00000000	          0.00000000	          0.00000000	          0.00000000	         -4.92968200	          0.00000000	          0.00000000	          0.00000000	          0.00000000	
          1.46770800	       -205.27491800	       1613.42297400	          4.67583000	          0.76962000	          0.00000000	         -0.34773300	          0.00000000	          0.00000000	          0.00000000	          0.00000000	          0.00000000	          0.00000000	          0.00000000	         -4.73617800	          0.00000000	          0.00000000	          0.00000000	          0.00000000	
          1.46875000	       -200.96344000	       1624.96716300	          4.24321900	          0.76626100	          0.00000000	         -0.34750900	          0.00000000	          0.00000000	          0.00000000	          0.00000000	          0.00000000	          0.00000000	          0.00000000	         -4.53268300	          0.00000000	          0.00000000	          0.00000000	          0.00000000	
